<svg width="124" height="31" viewBox="0 0 124 31" fill="none" xmlns="http://www.w3.org/2000/svg">
<path d="M32.2 22.416C32.632 22.4 32.96 22.352 33.184 22.272C33.408 22.176 33.584 21.984 33.712 21.696C33.84 21.408 33.904 20.952 33.904 20.328V11.136C33.904 10.24 33.936 9.52 34 8.976L32.2 9.048V7.2L39.016 7.152C41.176 7.136 42.864 7.568 44.08 8.448C45.312 9.312 45.928 10.632 45.928 12.408C45.928 13.32 45.672 14.192 45.16 15.024C44.648 15.856 43.88 16.536 42.856 17.064C41.832 17.592 40.584 17.88 39.112 17.928L38.176 17.952L37.384 17.928V20.04C37.384 20.952 37.352 21.68 37.288 22.224C37.8 22.176 38.48 22.152 39.328 22.152V24H32.2V22.416ZM38.464 16.2C39.76 16.2 40.704 15.88 41.296 15.24C41.904 14.584 42.208 13.632 42.208 12.384C42.208 10.016 41.136 8.832 38.992 8.832C38.432 8.832 38.024 8.952 37.768 9.192C37.512 9.432 37.384 9.944 37.384 10.728V16.128C37.72 16.176 38.08 16.2 38.464 16.2ZM46.7875 22.44C47.2195 22.44 47.5315 22.36 47.7235 22.2C47.9315 22.024 48.0595 21.792 48.1075 21.504C48.1715 21.216 48.2035 20.816 48.2035 20.304V10.44C48.2035 9.672 48.2355 8.976 48.2995 8.352L46.6195 8.424V6.6C47.6275 6.6 48.4435 6.528 49.0675 6.384C49.6915 6.24 50.1075 6.072 50.3155 5.88H51.6115V12.96C52.0755 12.592 52.6515 12.28 53.3395 12.024C54.0275 11.752 54.6195 11.616 55.1155 11.616C56.5555 11.616 57.5875 12.032 58.2115 12.864C58.8355 13.696 59.1555 15.048 59.1715 16.92V20.136C59.1715 20.904 59.1395 21.608 59.0755 22.248C59.5875 22.2 60.1075 22.176 60.6355 22.176V24H54.3235V22.44C54.9315 22.44 55.3235 22.272 55.4995 21.936C55.6755 21.6 55.7635 21.056 55.7635 20.304L55.7395 16.896C55.7395 15.84 55.5795 15.064 55.2595 14.568C54.9555 14.072 54.4675 13.824 53.7955 13.824C53.4115 13.824 53.0195 13.912 52.6195 14.088C52.2195 14.248 51.8835 14.456 51.6115 14.712V20.136C51.6115 20.904 51.5795 21.608 51.5155 22.248C52.0435 22.2 52.5635 22.176 53.0755 22.176V24H46.7875V22.44ZM67.9578 24.384C66.7898 24.384 65.7418 24.136 64.8138 23.64C63.8858 23.144 63.1578 22.432 62.6298 21.504C62.1018 20.576 61.8378 19.496 61.8378 18.264C61.8378 16.968 62.1098 15.816 62.6538 14.808C63.1978 13.8 63.9258 13.016 64.8378 12.456C65.7658 11.896 66.7818 11.616 67.8858 11.616C69.0378 11.616 70.0698 11.864 70.9818 12.36C71.8938 12.856 72.6138 13.576 73.1418 14.52C73.6698 15.448 73.9338 16.536 73.9338 17.784C73.9338 19.112 73.6778 20.272 73.1658 21.264C72.6698 22.256 71.9658 23.024 71.0538 23.568C70.1578 24.112 69.1258 24.384 67.9578 24.384ZM68.0058 22.68C68.8858 22.68 69.5018 22.272 69.8538 21.456C70.2058 20.64 70.3818 19.616 70.3818 18.384C70.3818 17.008 70.1818 15.816 69.7818 14.808C69.3818 13.8 68.7498 13.296 67.8858 13.296C67.0058 13.296 66.3658 13.712 65.9658 14.544C65.5658 15.376 65.3658 16.4 65.3658 17.616C65.3658 19.008 65.5818 20.2 66.0138 21.192C66.4458 22.184 67.1098 22.68 68.0058 22.68ZM81.3595 24.384C80.1915 24.384 79.1595 24.128 78.2635 23.616C77.3675 23.088 76.6715 22.344 76.1755 21.384C75.6795 20.424 75.4315 19.304 75.4315 18.024C75.4315 16.904 75.6795 15.856 76.1755 14.88C76.6875 13.888 77.3995 13.096 78.3115 12.504C79.2235 11.912 80.2635 11.616 81.4315 11.616C82.9835 11.616 84.2715 12.072 85.2955 12.984C86.3355 13.896 86.8475 15.416 86.8315 17.544L78.9595 17.688C78.9595 19.096 79.2235 20.208 79.7515 21.024C80.2955 21.84 81.1595 22.248 82.3435 22.248C82.9035 22.248 83.5035 22.104 84.1435 21.816C84.7835 21.528 85.3595 21.072 85.8715 20.448L86.9515 21.456C85.5915 23.408 83.7275 24.384 81.3595 24.384ZM83.5195 16.008C83.4715 14.2 82.8155 13.296 81.5515 13.296C80.8635 13.296 80.3115 13.544 79.8955 14.04C79.4955 14.52 79.2315 15.176 79.1035 16.008H83.5195ZM88.5856 22.44C89.1936 22.44 89.5776 22.272 89.7376 21.936C89.9136 21.6 90.0016 21.056 90.0016 20.304V16.272C90.0016 15.552 90.0336 14.872 90.0976 14.232L88.4176 14.304V12.48C89.4256 12.48 90.2416 12.408 90.8656 12.264C91.4896 12.12 91.9056 11.952 92.1136 11.76H93.2896C93.2896 11.792 93.3216 12.192 93.3856 12.96H93.4336C93.8976 12.592 94.4656 12.28 95.1376 12.024C95.8256 11.752 96.4096 11.616 96.8896 11.616C98.3456 11.616 99.3856 12.032 100.01 12.864C100.634 13.696 100.946 15.048 100.946 16.92V20.136C100.946 20.904 100.914 21.608 100.85 22.248C101.378 22.2 101.898 22.176 102.41 22.176V24H96.1216V22.44C96.7296 22.44 97.1216 22.272 97.2976 21.936C97.4736 21.6 97.5616 21.056 97.5616 20.304L97.5376 16.896C97.5376 15.84 97.3856 15.064 97.0816 14.568C96.7936 14.072 96.2976 13.824 95.5936 13.824C95.2096 13.824 94.8176 13.912 94.4176 14.088C94.0176 14.248 93.6816 14.456 93.4096 14.712V20.136C93.4096 20.904 93.3776 21.608 93.3136 22.248C93.8256 22.2 94.3456 22.176 94.8736 22.176V24H88.5856V22.44ZM107.227 9.624C106.683 9.624 106.235 9.44 105.883 9.072C105.531 8.688 105.355 8.224 105.355 7.68C105.355 7.136 105.539 6.672 105.907 6.288C106.275 5.888 106.707 5.688 107.203 5.688C107.715 5.688 108.139 5.88 108.475 6.264C108.827 6.648 109.003 7.12 109.003 7.68C109.003 8.24 108.835 8.704 108.499 9.072C108.179 9.44 107.755 9.624 107.227 9.624ZM103.843 22.44C104.451 22.44 104.835 22.272 104.995 21.936C105.171 21.6 105.259 21.056 105.259 20.304V16.32C105.259 15.568 105.291 14.872 105.355 14.232L103.675 14.304V12.48C104.683 12.48 105.499 12.408 106.123 12.264C106.747 12.12 107.163 11.952 107.371 11.76H108.667V20.136C108.667 20.904 108.635 21.608 108.571 22.248C109.083 22.2 109.603 22.176 110.131 22.176V24H103.843V22.44ZM111.671 22.464C111.975 22.336 112.263 22.152 112.535 21.912C112.807 21.672 113.127 21.336 113.495 20.904L115.583 18.504L113.231 15.744C113.183 15.696 112.975 15.44 112.607 14.976C112.239 14.512 111.991 14.112 111.863 13.776L111.215 13.824V12H116.519V13.536C116.135 13.552 115.943 13.68 115.943 13.92C115.943 14.16 116.111 14.472 116.447 14.856L117.551 16.152H117.575L118.487 15.048C118.551 14.984 118.703 14.808 118.943 14.52C119.183 14.232 119.423 13.976 119.663 13.752V13.728L118.487 13.824V12H122.711V13.536C121.815 13.92 121.015 14.56 120.311 15.456L118.703 17.424L121.487 20.664C122.047 21.32 122.431 21.84 122.639 22.224L123.455 22.176V24H117.791V22.464C118.335 22.448 118.607 22.304 118.607 22.032C118.607 21.84 118.471 21.592 118.199 21.288L116.759 19.776H116.735L115.631 21.12C115.503 21.28 115.319 21.488 115.079 21.744C114.855 22 114.679 22.168 114.551 22.248V22.272L115.655 22.176V24H111.671V22.464Z" fill="#333333"/>
<ellipse cx="11.5" cy="13.5" rx="11.5" ry="12.5" fill="#FF922C"/>
<path d="M15 21.4286C15 18.9038 11.5 10 11.5 10C11.5 10 8 18.9038 8 21.4286C8 23.9533 9.567 26 11.5 26C13.433 26 15 23.9533 15 21.4286Z" fill="white"/>
</svg>
